<svg id="Layer_1" data-name="Layer 1" xmlns="http://www.w3.org/2000/svg" viewBox="0 0 212.24 34.39"><defs><style>.cls-1{fill:#fff;}</style></defs><title>GoGuardian_logo_white</title><g id="_Group_" data-name="&lt;Group&gt;"><g id="_Group_2" data-name="&lt;Group&gt;"><g id="_Group_3" data-name="&lt;Group&gt;"><path id="_Path_" data-name="&lt;Path&gt;" class="cls-1" d="M40.4,32c-3.3,5.9-10,11-13.28,13A44.7,44.7,0,0,1,16.6,33.43l.5-9.87a95.17,95.17,0,0,0,10.77,15C30.21,37.44,35.6,34.63,40.4,32" transform="translate(-10.55 -10.66)"/><path id="_Path_2" data-name="&lt;Path&gt;" class="cls-1" d="M15.06,32.13c-3.41-5.82-4.46-14.17-4.51-18A41.43,41.43,0,0,1,25.37,10.9l8.25,5.42A88.59,88.59,0,0,0,15.75,18c-.2,2.59-.51,8.67-.69,14.12" transform="translate(-10.55 -10.66)"/><path id="_Path_3" data-name="&lt;Path&gt;" class="cls-1" d="M27.48,10.67c6.74-.2,14.57,2.89,18,4.69a42.68,42.68,0,0,1-4.56,14.56L32.2,34.56A94.28,94.28,0,0,0,39.54,18c-2.18-1.41-7.36-4.6-12.06-7.37" transform="translate(-10.55 -10.66)"/></g></g></g><path class="cls-1" d="M62.47,30.38v-3.5h9.82v8.9a12.11,12.11,0,0,1-9.86,4.6c-7,0-12.37-4.83-12.37-12a12,12,0,0,1,12.37-12,12.2,12.2,0,0,1,9.43,4.37L69,23.24A8.78,8.78,0,0,0,62.43,20a8,8,0,0,0-8,8.37c0,5.06,3.28,8.37,8,8.37a8.43,8.43,0,0,0,5.76-2.25V30.38Z" transform="translate(-10.55 -10.66)"/><path class="cls-1" d="M91.57,31.44a8.83,8.83,0,1,1-17.66,0,8.83,8.83,0,1,1,17.66,0Zm-8.83-5.39C80,26.05,78,28.47,78,31.44s2,5.43,4.77,5.43,4.76-2.42,4.76-5.43S85.52,26.05,82.74,26.05Z" transform="translate(-10.55 -10.66)"/><path class="cls-1" d="M105.23,30.38v-3.5h9.83v8.9a12.12,12.12,0,0,1-9.86,4.6c-7,0-12.37-4.83-12.37-12a12,12,0,0,1,12.37-12,12.23,12.23,0,0,1,9.43,4.37l-2.88,2.45A8.78,8.78,0,0,0,105.2,20a8,8,0,0,0-8,8.37c0,5.06,3.28,8.37,8,8.37A8.44,8.44,0,0,0,111,34.52V30.38Z" transform="translate(-10.55 -10.66)"/><path class="cls-1" d="M129,40l-.2-2.52a6.55,6.55,0,0,1-5.43,2.92,5.73,5.73,0,0,1-4.7-2.19c-1.25-1.65-1.52-3.9-1.52-6.38V22.94h4v8.57a8.45,8.45,0,0,0,.67,4.07,2.72,2.72,0,0,0,2.58,1.29,5.28,5.28,0,0,0,4.23-2.61V22.94h4V40Z" transform="translate(-10.55 -10.66)"/><path class="cls-1" d="M145.44,40l-.2-1.59a5.9,5.9,0,0,1-4.83,2c-3.18,0-6.12-1.76-6.12-5.33,0-4.24,3.9-5.56,7.51-5.56a15.32,15.32,0,0,1,3.21.37v-.4c0-2.32-1-3.71-3.64-3.71a11.74,11.74,0,0,0-5.26,1.49l-1.09-3a16.77,16.77,0,0,1,7.08-1.69c4.83,0,6.91,2.72,6.91,7.15V40ZM145,32.43a11.91,11.91,0,0,0-2.62-.33c-1.88,0-4.17.6-4.17,2.82,0,1.72,1.36,2.48,2.92,2.48A5.91,5.91,0,0,0,145,35.71Z" transform="translate(-10.55 -10.66)"/><path class="cls-1" d="M155,25.36c1-1.66,2.38-2.82,4.13-2.82a6.46,6.46,0,0,1,2,.3l-.89,3.74a3.2,3.2,0,0,0-1.62-.37,4,4,0,0,0-3.51,2.29V40h-4v-17h3.67Z" transform="translate(-10.55 -10.66)"/><path class="cls-1" d="M177.72,40h-3.67l-.2-2.19a6.31,6.31,0,0,1-5.32,2.59c-4.7,0-8.18-4-8.18-9,0-4.67,3.34-8.87,8.24-8.87a7.09,7.09,0,0,1,5.1,2.15V15.16h4Zm-4-11.78a5.44,5.44,0,0,0-4.34-2.15c-3.34,0-4.93,2.84-4.93,5.46,0,2.78,1.86,5.36,4.87,5.36a4.94,4.94,0,0,0,4.4-2.65Z" transform="translate(-10.55 -10.66)"/><path class="cls-1" d="M180.28,20.16V16.42h4v3.74Zm0,19.82v-17h4V40Z" transform="translate(-10.55 -10.66)"/><path class="cls-1" d="M197.4,40l-.2-1.59a5.88,5.88,0,0,1-4.83,2c-3.17,0-6.12-1.76-6.12-5.33,0-4.24,3.91-5.56,7.51-5.56a15.18,15.18,0,0,1,3.21.37v-.4c0-2.32-1-3.71-3.64-3.71a11.78,11.78,0,0,0-5.26,1.49l-1.09-3a16.81,16.81,0,0,1,7.08-1.69c4.83,0,6.92,2.72,6.92,7.15V40ZM197,32.43a11.75,11.75,0,0,0-2.61-.33c-1.89,0-4.17.6-4.17,2.82,0,1.72,1.36,2.48,2.91,2.48A5.91,5.91,0,0,0,197,35.71Z" transform="translate(-10.55 -10.66)"/><path class="cls-1" d="M206.72,22.94l.2,2.51a6.53,6.53,0,0,1,5.42-2.91,5.73,5.73,0,0,1,4.7,2.19c1.26,1.65,1.52,3.9,1.52,6.38V40h-4V31.41a8.45,8.45,0,0,0-.66-4.07,2.74,2.74,0,0,0-2.58-1.29,5.29,5.29,0,0,0-4.24,2.61V40h-4v-17Z" transform="translate(-10.55 -10.66)"/><path class="cls-1" d="M218.56,20.43a2.17,2.17,0,0,1,.28-1.05,2.09,2.09,0,0,1,.78-.78,2.15,2.15,0,0,1,1.06-.28,2.07,2.07,0,0,1,1,.28,2,2,0,0,1,.77.77,2.11,2.11,0,0,1,0,2.1,2.06,2.06,0,0,1-.77.78,2,2,0,0,1-1.07.29,2,2,0,0,1-1.08-.29,2.12,2.12,0,0,1-1-1.82Zm.26,0a1.88,1.88,0,0,0,.25.93,1.82,1.82,0,0,0,.68.67,1.75,1.75,0,0,0,.93.25,1.83,1.83,0,0,0,.92-.24,1.93,1.93,0,0,0,.68-.68,1.85,1.85,0,0,0,.25-.93,1.82,1.82,0,0,0-.24-.91,1.9,1.9,0,0,0-.67-.68,1.85,1.85,0,0,0-.94-.26,1.8,1.8,0,0,0-.93.25,1.85,1.85,0,0,0-.68.68A1.9,1.9,0,0,0,218.82,20.43Zm2.61-.52a.71.71,0,0,1-.11.39.72.72,0,0,1-.31.26l.67,1.11h-.34l-.59-1h-.48v1H220V19.2h.59a1,1,0,0,1,.63.17A.68.68,0,0,1,221.43,19.91Zm-1.16.52h.32a.57.57,0,0,0,.4-.13.46.46,0,0,0,.15-.38c0-.32-.19-.48-.56-.48h-.31Z" transform="translate(-10.55 -10.66)"/></svg>