<svg width="46" height="46" viewBox="0 0 46 46" fill="none" xmlns="http://www.w3.org/2000/svg">
<path d="M0 23C0 10.2975 10.2975 0 23 0C35.7025 0 46 10.2975 46 23C46 35.7025 35.7025 46 23 46C10.2975 46 0 35.7025 0 23Z" fill="#D2E9FF"/>
<path d="M31.073 13.4634H15.3661C13.4579 13.4634 12 15.0022 12 17.0162V26.4912C12 28.3853 13.4579 30.0441 15.3661 30.0441H26.5856L31.073 34.7805V30.0441C32.9811 30.0441 34.439 28.3853 34.439 26.4912V17.0162C34.439 15.0044 32.9811 13.4634 31.073 13.4634Z" fill="#2F98FB"/>
</svg>
