<svg width="83" height="82" viewBox="0 0 83 82" fill="none" xmlns="http://www.w3.org/2000/svg">
  <path d="M70.8999 50.6241C63.0999 64.6241 47.1999 76.7241 39.3999 81.5241C29.4999 73.9241 20.9999 64.6241 14.3999 54.0241L15.5999 30.6241C22.9999 43.3241 31.4999 55.2241 41.1999 66.2241C46.6999 63.6241 59.4999 56.9241 70.8999 50.6241Z" fill="white"/>
  <path d="M10.7 51.024C2.6 37.124 0.1 17.324 0 8.22405C11.2 3.52405 23.1 0.924048 35.2 0.524048L54.8 13.424C40.6 13.324 26.3 14.624 12.4 17.424C11.9 23.624 11.1 38.024 10.7 51.024Z" fill="white"/>
  <path d="M40.2 0.0240982C56.2 -0.475902 74.7999 6.9241 82.9 11.1241C81.4 23.2241 77.7999 34.9241 72.0999 45.7241L51.4 56.7241C58.5 44.2241 64.3 31.0241 68.8 17.4241C63.7 14.1241 51.4 6.5241 40.2 0.0240982Z" fill="white"/>
</svg>
