<svg
  xmlns="http://www.w3.org/2000/svg"
  viewBox="0 0 34.39 34.39"
  fill="white"
  aria-hidden="true"
>
  <path
    d="M40.4,32c-3.3,5.9-10,11-13.28,13A44.7,44.7,0,0,1,16.6,33.43l.5-9.87a95.17,95.17,0,0,0,10.77,15C30.21,37.44,35.6,34.63,40.4,32"
    transform="translate(-10.55 -10.66)"
  />
  <path
    d="M15.06,32.13c-3.41-5.82-4.46-14.17-4.51-18A41.43,41.43,0,0,1,25.37,10.9l8.25,5.42A88.59,88.59,0,0,0,15.75,18c-.2,2.59-.51,8.67-.69,14.12"
    transform="translate(-10.55 -10.66)"
  />
  <path
    d="M27.48,10.67c6.74-.2,14.57,2.89,18,4.69a42.68,42.68,0,0,1-4.56,14.56L32.2,34.56A94.28,94.28,0,0,0,39.54,18c-2.18-1.41-7.36-4.6-12.06-7.37"
    transform="translate(-10.55 -10.66)"
  />
</svg>
